#!OML:ASF F:\VICON\USERDATA\INSTALL\rory3\rory3.ASF
:FULLY-SPECIFIED
:DEGREES
52
root 0.6704488129767106 17.798960681426433 30.470705416899598 -2.1437047119766586 0.2908503067526169 3.9067673815170294
lfemur 8.79197059494114 -2.9512486739893418 -30.008810959644375
ltibia 14.471646283681206
lfoot -18.082428235573566 3.5624485481078096
ltoes 0.13125567558352458
rfemur -33.2443293991906 2.114344478176632 15.410345294168565
rtibia 35.369379730020945
rfoot -9.22414366529894 -16.26492788634497
rtoes 0.24626760566464512
lowerback 9.728565657674915 -0.8334509893373251 -5.168038093386383
upperback 0.6226978731621436 -1.6852302370154848 0.669536169435556
thorax -4.767511927542894 -0.7099879658946769 3.573411467462426
lowerneck -16.73707760522596 -2.723549593279895 -3.0505846743446745
upperneck 20.190294628149978 -3.4983746581898276 2.0155439159318824
head 9.141012850798877 -1.6565541532917256 0.7227689201390902
lclavicle -3.2120173300527426e-15 -6.930177797864068e-16
lhumerus -20.89479233102897 -6.165445721327154 82.55934768717606
lradius 27.188893570445945
lwrist 6.711857595914548
lhand -27.318956406025187 24.04943196702207
lfingers 7.1250199999999975
lthumb -0.7281443187745098 54.03147413099016
rclavicle -3.2120173300527426e-15 -6.930177797864068e-16
rhumerus -30.885306266074764 -20.103380052079835 -79.4819418467939
rradius 24.749596446952786
rwrist 4.9080670990536515
rhand -17.204738174530736 22.6758408816379
rfingers 7.1250199999999975
rthumb 9.037684646763058 -7.033973625662951
53
root 0.5990435022706844 17.7277489800748 31.407883943533868 -1.3634717841058137 1.293526340102154 4.320724175873044
lfemur 13.383187081312776 -3.021166484104742 -30.011371746173335
ltibia 10.51260169432874
lfoot -18.032630661592435 2.2496856930715605
ltoes -3.146938960473146
rfemur -32.4803379728234 4.377161583236431 14.046543501551799
rtibia 22.42097422161333
rfoot -9.313245670770621 -18.091012443258315
rtoes -1.5867276976074431
lowerback 9.29957976759544 -1.2570805870933355 -5.9351773036930675
upperback 0.5155416699978573 -2.3066547531868746 0.7686758425508173
thorax -4.603438847813778 -1.0064544316232267 4.165082009063499
lowerneck -16.824373465362335 -2.7216059668875223 -3.083200926614836
upperneck 20.07071281342651 -3.5021561302479753 2.068836342748191
head 9.108128667750398 -1.6516808154331535 0.74335007903613
lclavicle -3.24903702408882e-15 -7.1813486954285e-16
lhumerus -18.54768581896141 -6.921301618793954 82.16544711649209
lradius 28.7170175992495
lwrist 7.504559791697696
lhand -27.64663997865261 23.631725977502192
lfingers 7.1250199999999975
lthumb -1.044613118478825 53.60969100283253
rclavicle -3.24903702408882e-15 -7.1813486954285e-16
rhumerus -31.66678199827722 -21.090282490303885 -78.69677488623354
rradius 24.076715362943432
rwrist 5.834273713580988
rhand -17.197245581092993 22.977826246466087
rfingers 7.1250199999999975
rthumb 9.044907496576759 -6.761294728656374
54
root 0.5199473193296442 17.648666107033776 32.56972509910784 -0.9859487187909715 1.952856857194048 4.212448343129518
lfemur 17.10682567066835 -3.7162974304430714 -29.469944886149523
ltibia 9.68687217747813
lfoot -17.03721127229125 0.5709146555950106
ltoes -7.781767176212346
rfemur -31.468808844644748 5.506090816414892 14.288880503345865
rtibia 17.270535087997825
rfoot -8.710181280911016 -16.272437981658
rtoes -3.066317784007184
lowerback 9.084060820525705 -1.5148873180661777 -5.980161883744447
upperback 0.47535474887708384 -2.6213628709929537 1.0124973230542462
thorax -4.491913297248397 -1.1657651426213675 4.54417866233514
lowerneck -16.92865566125697 -2.6945809249144475 -3.0659225490793593
upperneck 20.102272707462863 -3.4585158317586844 1.978870185885263
head 9.133700503626562 -1.634380836009429 0.7210401106219226
lclavicle -2.978389967587817e-15 -5.37476664141749e-16
lhumerus -17.16082405869681 -6.834651805317192 82.00130309548646
lradius 29.95435347994317
lwrist 7.986803424012976
lhand -28.24230281558523 22.491357500815113
lfingers 7.1250199999999975
lthumb -1.6198587566914964 52.46153903864468
rclavicle -2.978389967587817e-15 -5.37476664141749e-16
rhumerus -32.37260827112748 -22.691509323965352 -77.43372827837022
rradius 23.172170916281758
rwrist 7.4501562730545885
rhand -17.393167677786693 23.124034408833978
rfingers 7.1250199999999975
rthumb 8.855840499584856 -6.6699511476164535
55
root 0.42418664723752825 17.59545796268339 33.433207450831894 -1.1108866206465196 2.129906489323254 3.383159810316759
lfemur 18.84665749111382 -4.723743618833666 -28.537391682890693
ltibia 12.398540220988021
lfoot -14.518720165410215 -1.8675097493134032
ltoes -12.913281960941617
rfemur -31.254753487657908 5.315608521847672 15.9076266096487
rtibia 18.98417491189148
rfoot -7.300368709467293 -12.158783784403203
rtoes -2.902567223010639
lowerback 9.04561014108533 -1.6762155538487775 -5.441480117036921
upperback 0.47614203593938265 -2.744788523044819 1.3842233762706118
thorax -4.465255547520128 -1.2383359800340585 4.609969780839792
lowerneck -17.017459357497447 -2.6296910625787757 -3.0318077161744252
upperneck 20.246426622225453 -3.340741576198895 1.6806590533444836
head 9.191611949228305 -1.5982778761123748 0.6484217334966824
lclavicle -3.1201292653493165e-15 -6.31205835098976e-16
lhumerus -17.044570056492798 -6.149302843582041 82.12825799563625
lradius 30.751848630906704
lwrist 8.168089992434187
lhand -29.047945798012336 21.277654802181644
lfingers 7.1250199999999975
lthumb -2.397900686514667 51.23913518593092
rclavicle -3.1201292653493165e-15 -6.31205835098976e-16
rhumerus -33.18871294676283 -24.939822472096406 -75.95824500603625
rradius 21.991407965889408
rwrist 9.422082375741265
rhand -17.61310867705072 22.986528072135023
rfingers 7.1250199999999975
rthumb 8.643600656221595 -6.828285659053312
